<svg width="269" height="38" viewBox="0 0 269 38" fill="none" xmlns="http://www.w3.org/2000/svg">
<g clip-path="url(#clip0_896_908)">
<path d="M58.8 33.9C57.9 33.9 57.2 33.6 56.7 33.1C56.2 32.6 56 31.8 56 30.9V17.4L57.2 20.8L46.5 5.80002C46.1 5.30002 45.9 4.70002 46 4.10002C46 3.50002 46.3 3.00002 46.8 2.60002C47.2 2.20002 47.9 1.90002 48.7 1.90002C49.5 1.90002 49.8 2.00002 50.3 2.30002C50.8 2.60002 51.3 3.10002 51.7 3.70002L59.6 14.9H58.4L66.4 3.70002C66.9 3.10002 67.3 2.60002 67.8 2.30002C68.2 2.00002 68.8 1.90002 69.4 1.90002C70 1.90002 70.8 2.10002 71.2 2.50002C71.6 2.90002 71.9 3.40002 71.9 4.00002C71.9 4.60002 71.7 5.20002 71.3 5.90002L60.7 20.9L61.9 17.5V31C61.9 33 61 34 59.1 34L58.8 33.9Z" fill="#212121"/>
<path d="M81.6 34C79.4 34 77.4 33.5 75.8 32.6C74.2 31.7 72.9 30.4 71.9 28.7C71 27 70.5 25 70.5 22.7C70.5 20.4 70.8 19.4 71.3 18.1C71.8 16.7 72.6 15.5 73.6 14.6C74.6 13.6 75.7 12.8 77.1 12.3C78.5 11.8 80 11.5 81.7 11.5C83.4 11.5 85.9 12 87.5 12.9C89.2 13.8 90.4 15.1 91.4 16.8C92.3 18.5 92.8 20.5 92.8 22.8C92.8 25.1 92.5 26.1 92 27.5C91.5 28.9 90.8 30.1 89.8 31.1C88.8 32.1 87.7 32.8 86.3 33.4C84.9 33.9 83.4 34.2 81.7 34.2L81.6 34ZM81.6 29.8C82.7 29.8 83.7 29.5 84.5 29C85.3 28.5 86 27.7 86.4 26.7C86.9 25.6 87.1 24.3 87.1 22.8C87.1 20.4 86.6 18.7 85.6 17.5C84.6 16.3 83.3 15.7 81.6 15.7C79.9 15.7 79.5 16 78.7 16.5C77.9 17 77.2 17.8 76.8 18.8C76.4 19.8 76.1 21.1 76.1 22.7C76.1 25 76.6 26.8 77.6 28C78.6 29.2 79.9 29.8 81.6 29.8Z" fill="#212121"/>
<path d="M104.6 34C102.2 34 100.3 33.3 99.1 31.9C97.9 30.5 97.2 28.4 97.2 25.7V4.8C97.2 3.9 97.4 3.2 97.9 2.7C98.4 2.2 99.1 2 99.9 2C100.7 2 101.5 2.2 101.9 2.7C102.4 3.2 102.7 3.9 102.7 4.8V25.5C102.7 26.9 103 27.9 103.5 28.5C104.1 29.1 104.9 29.5 106 29.5H106.7C106.9 29.5 107.1 29.5 107.3 29.5C107.7 29.5 108 29.5 108.1 29.9C108.2 30.2 108.3 30.7 108.3 31.6C108.3 32.5 108.2 32.9 107.9 33.3C107.6 33.7 107.1 34 106.4 34.1C106.1 34.1 105.8 34.1 105.5 34.1C105.2 34.1 104.9 34.1 104.5 34.1L104.6 34Z" fill="#212121"/>
<path d="M114.1 33.9C113.2 33.9 112.5 33.7 112.1 33.2C111.6 32.7 111.4 32 111.4 31.1V4.8C111.4 3.9 111.6 3.2 112.1 2.7C112.6 2.2 113.3 2 114.1 2C114.9 2 115.7 2.2 116.1 2.7C116.6 3.2 116.9 3.9 116.9 4.8V21.1L124.2 13.4C124.8 12.8 125.3 12.4 125.7 12C126.1 11.7 126.7 11.5 127.5 11.5C128.3 11.5 128.8 11.7 129.2 12.1C129.6 12.5 129.8 13 129.8 13.5C129.8 14 129.5 14.6 129 15.2L121.3 23.3V21L129.8 30.1C130.3 30.7 130.6 31.2 130.5 31.8C130.5 32.4 130.2 32.8 129.8 33.2C129.4 33.6 128.8 33.7 128.1 33.7C127.4 33.7 126.6 33.5 126.1 33.2C125.6 32.9 125.1 32.4 124.5 31.7L116.8 23.6V30.8C116.8 32.7 115.9 33.6 114 33.6L114.1 33.9Z" fill="#212121"/>
<path d="M142 34C140.4 34 139 33.7 137.8 33.1C136.6 32.5 135.6 31.7 134.9 30.6C134.2 29.6 133.9 28.4 133.9 27.1C133.9 25.8 134.3 24.3 135.1 23.3C135.9 22.4 137.3 21.7 139.1 21.3C141 20.9 143.5 20.7 146.6 20.7H148.8V23.9H146.6C144.8 23.9 143.3 23.9 142.2 24.2C141.1 24.4 140.3 24.7 139.9 25.1C139.5 25.5 139.2 26.1 139.2 26.9C139.2 27.7 139.5 28.7 140.2 29.3C140.9 29.9 141.8 30.2 143 30.2C144.2 30.2 144.8 30 145.6 29.5C146.4 29 147 28.4 147.4 27.6C147.8 26.8 148.1 25.9 148.1 24.9V19.8C148.1 18.3 147.8 17.3 147.1 16.6C146.5 16 145.4 15.6 143.8 15.6C142.2 15.6 142 15.7 141 15.9C140 16.1 139 16.5 137.9 17C137.3 17.3 136.8 17.3 136.4 17.2C136 17.1 135.7 16.8 135.4 16.5C135.2 16.1 135 15.7 135 15.3C135 14.9 135.1 14.4 135.4 14C135.6 13.6 136 13.2 136.6 13C138 12.4 139.3 12 140.5 11.8C141.8 11.6 142.9 11.4 144 11.4C146.1 11.4 147.9 11.7 149.2 12.4C150.6 13 151.6 14 152.3 15.4C153 16.7 153.3 18.4 153.3 20.4V31C153.3 31.9 153.1 32.6 152.6 33.1C152.2 33.6 151.5 33.8 150.7 33.8C149.9 33.8 149.2 33.6 148.8 33.1C148.4 32.6 148.1 31.9 148.1 31V28.9H148.5C148.3 29.9 147.9 30.8 147.3 31.6C146.7 32.3 146 32.9 145 33.3C144.1 33.7 143 33.9 141.9 33.9L142 34Z" fill="#212121"/>
<path d="M174.6 33.6C173.6 33.6 172.9 33.3 172.3 32.8C171.8 32.3 171.5 31.5 171.5 30.5V5.40002C171.5 4.40002 171.8 3.70002 172.3 3.20002C172.8 2.70002 173.6 2.40002 174.6 2.40002H183.2C188.4 2.40002 192.5 3.70002 195.3 6.40002C198.2 9.10002 199.6 12.9 199.6 18C199.6 23.1 199.2 22.7 198.5 24.7C197.8 26.6 196.7 28.2 195.3 29.6C193.9 30.9 192.2 31.9 190.2 32.7C188.2 33.4 185.9 33.7 183.3 33.7H174.7L174.6 33.6ZM177.3 28.9H182.9C184.7 28.9 186.3 28.7 187.6 28.2C189 27.7 190.1 27 191 26.2C191.9 25.3 192.6 24.1 193 22.8C193.4 21.4 193.7 19.8 193.7 18C193.7 14.3 192.8 11.6 191 9.80002C189.2 8.00002 186.5 7.10002 182.9 7.10002H177.3V28.9Z" fill="#00A1FF"/>
<path d="M214.7 34C212.5 34 210.5 33.5 208.9 32.6C207.2 31.7 206 30.4 205 28.7C204.1 27 203.6 25 203.6 22.7C203.6 20.4 203.9 19.4 204.4 18.1C204.9 16.7 205.7 15.5 206.7 14.6C207.7 13.6 208.8 12.8 210.2 12.3C211.6 11.8 213.1 11.5 214.8 11.5C216.5 11.5 219 12 220.6 12.9C222.3 13.8 223.5 15.1 224.5 16.8C225.4 18.5 225.9 20.5 225.9 22.8C225.9 25.1 225.6 26.1 225.1 27.5C224.6 28.9 223.9 30.1 222.9 31.1C221.9 32.1 220.8 32.8 219.4 33.4C218 33.9 216.5 34.2 214.8 34.2L214.7 34ZM214.7 29.8C215.8 29.8 216.8 29.5 217.6 29C218.4 28.5 219.1 27.7 219.5 26.7C220 25.6 220.2 24.3 220.2 22.8C220.2 20.4 219.7 18.7 218.7 17.5C217.7 16.3 216.4 15.7 214.7 15.7C213 15.7 212.6 16 211.8 16.5C211 17 210.3 17.8 209.9 18.8C209.5 19.8 209.2 21.1 209.2 22.7C209.2 25 209.7 26.8 210.7 28C211.7 29.2 213 29.8 214.7 29.8Z" fill="#00A1FF"/>
<path d="M240.3 34C238 34 236.1 33.5 234.4 32.6C232.7 31.7 231.4 30.3 230.5 28.6C229.6 26.9 229.1 24.9 229.1 22.6C229.1 20.3 229.4 19.3 229.9 18C230.4 16.6 231.2 15.4 232.2 14.5C233.2 13.5 234.4 12.8 235.7 12.3C237.1 11.8 238.6 11.5 240.3 11.5C242 11.5 242.3 11.6 243.4 11.9C244.6 12.2 245.6 12.6 246.6 13.2C247.1 13.5 247.4 13.8 247.5 14.3C247.6 14.7 247.7 15.1 247.5 15.6C247.5 16 247.2 16.4 246.9 16.7C246.6 17 246.3 17.2 245.9 17.3C245.5 17.3 245 17.3 244.5 17C243.9 16.6 243.2 16.3 242.5 16.2C241.8 16 241.2 15.9 240.6 15.9C239.6 15.9 238.8 16.1 238 16.4C237.3 16.7 236.6 17.1 236.1 17.7C235.6 18.3 235.2 19 234.9 19.8C234.6 20.7 234.5 21.6 234.5 22.8C234.5 25 235 26.7 236 28C237.1 29.2 238.6 29.9 240.5 29.9C242.4 29.9 241.8 29.9 242.4 29.6C243.1 29.4 243.8 29.1 244.4 28.8C244.9 28.5 245.3 28.4 245.7 28.5C246.1 28.5 246.5 28.8 246.7 29.1C247 29.4 247.1 29.8 247.2 30.2C247.2 30.6 247.2 31 247 31.4C246.9 31.8 246.6 32.2 246.1 32.4C245.1 33 244.1 33.4 243 33.7C241.9 34 240.9 34.1 239.9 34.1L240.3 34Z" fill="#00A1FF"/>
<path d="M259.1 34C257.8 34 256.5 33.9 255.1 33.6C253.7 33.3 252.4 32.9 251.3 32.2C250.8 31.9 250.5 31.6 250.3 31.2C250.1 30.8 250 30.4 250.1 30C250.1 29.6 250.3 29.2 250.5 28.9C250.8 28.6 251.1 28.4 251.5 28.3C251.9 28.3 252.4 28.3 252.8 28.5C254 29.1 255.1 29.5 256.1 29.7C257.1 29.9 258.1 30 259.2 30C260.3 30 261.7 29.8 262.3 29.3C263 28.8 263.4 28.1 263.4 27.4C263.4 26.7 263.2 26.2 262.7 25.9C262.3 25.5 261.6 25.2 260.7 25.1L256.3 24.3C254.5 23.9 253.1 23.3 252.1 22.3C251.2 21.3 250.7 20 250.7 18.4C250.7 16.8 251.1 15.8 251.9 14.7C252.7 13.7 253.8 12.9 255.2 12.3C256.6 11.7 258.2 11.5 260 11.5C261.8 11.5 262.5 11.6 263.6 11.9C264.7 12.2 265.9 12.6 266.9 13.2C267.3 13.4 267.6 13.7 267.8 14.1C268 14.5 268 14.9 267.9 15.3C267.9 15.7 267.6 16 267.4 16.4C267.1 16.7 266.8 16.9 266.4 17C266 17 265.6 17 265.1 16.7C264.2 16.2 263.3 15.9 262.4 15.7C261.6 15.5 260.8 15.4 260 15.4C258.6 15.4 257.5 15.7 256.8 16.2C256.1 16.7 255.8 17.4 255.8 18.2C255.8 19 256 19.3 256.4 19.7C256.8 20.1 257.4 20.4 258.3 20.5L262.7 21.3C264.6 21.7 266.1 22.3 267 23.2C268 24.1 268.5 25.4 268.5 27C268.5 28.6 267.7 30.9 266 32.1C264.3 33.3 262.1 33.9 259.3 33.9L259.1 34Z" fill="#00A1FF"/>
<path d="M26 32H12C9.8 32 8 30.2 8 28V16C8 14.8 8.6 13.6 9.5 12.8L17.2 6.8C17.9 6.2 18.8 6 19.7 6H26C28.2 6 30 7.8 30 10V28C30 30.2 28.2 32 26 32Z" stroke="url(#paint0_linear_896_908)" stroke-width="2.5"/>
<path d="M36 18H2" stroke="url(#paint1_linear_896_908)" stroke-width="2" stroke-linecap="round"/>
<path d="M23.5 16.1C23.3 16.1 23.1 16.1 23 15.9C22.9 15.8 22.8 15.6 22.8 15.4V13.1L23.1 13.8L21.2 11.1C21.2 11 21.1 10.9 21.2 10.7C21.2 10.6 21.2 10.5 21.4 10.4C21.4 10.4 21.6 10.3 21.8 10.3C22 10.3 22 10.3 22.1 10.3C22.2 10.3 22.3 10.5 22.4 10.6L23.7 12.4H23.4L24.7 10.6C24.8 10.5 24.9 10.4 25 10.3C25.1 10.3 25.2 10.3 25.4 10.3C25.6 10.3 25.7 10.3 25.8 10.4C25.8 10.4 25.9 10.6 26 10.7C26 10.8 26 11 25.9 11.1L24 13.8L24.2 13.1V15.4C24.2 15.8 24 16 23.6 16L23.5 16.1Z" fill="url(#paint2_linear_896_908)"/>
<path d="M26.2 27.8H12.8" stroke="url(#paint3_linear_896_908)" stroke-width="1.5" stroke-linecap="round"/>
<path d="M26.2 23.8H12.8" stroke="url(#paint4_linear_896_908)" stroke-width="1.5" stroke-linecap="round"/>
<path d="M10.8 36.7C10.8 36.7 8.7 36.7 6.8 36.7C1.1 36.7 1.5 31.4 1.5 31.4V26.7" stroke="url(#paint5_linear_896_908)" stroke-width="2.5" stroke-linecap="round" stroke-linejoin="round"/>
<path d="M27 1.40002C27 1.40002 29.1 1.40002 31 1.40002C36.7 1.40002 36.3 6.70002 36.3 6.70002V11.4" stroke="url(#paint6_linear_896_908)" stroke-width="2.5" stroke-linecap="round" stroke-linejoin="round"/>
<path d="M26.2 36.6C26.2 36.6 28.3 36.6 30.2 36.6C35.9 36.6 35.5 31.3 35.5 31.3V26.6" stroke="url(#paint7_linear_896_908)" stroke-width="2.5" stroke-linecap="round" stroke-linejoin="round"/>
<path d="M10.7 1.40002C10.7 1.40002 8.6 1.40002 6.7 1.40002C0.900003 1.40002 1.4 6.70002 1.4 6.70002V11.4" stroke="url(#paint8_linear_896_908)" stroke-width="2.5" stroke-linecap="round" stroke-linejoin="round"/>
</g>
<defs>
<linearGradient id="paint0_linear_896_908" x1="12.5" y1="10.3" x2="28.5" y2="31.6" gradientUnits="userSpaceOnUse">
<stop stop-color="#7CCFFF"/>
<stop offset="1" stop-color="#058DDB"/>
</linearGradient>
<linearGradient id="paint1_linear_896_908" x1="nan" y1="nan" x2="nan" y2="nan" gradientUnits="userSpaceOnUse">
<stop stop-color="#90D7FF"/>
<stop offset="1" stop-color="#0986CF"/>
</linearGradient>
<linearGradient id="paint2_linear_896_908" x1="14.8" y1="0.300048" x2="32.2" y2="23.6" gradientUnits="userSpaceOnUse">
<stop offset="0.2" stop-color="#7CCFFF"/>
<stop offset="0.8" stop-color="#058DDB"/>
</linearGradient>
<linearGradient id="paint3_linear_896_908" x1="nan" y1="nan" x2="nan" y2="nan" gradientUnits="userSpaceOnUse">
<stop stop-color="#058DDB"/>
<stop offset="1" stop-color="#1892D8"/>
</linearGradient>
<linearGradient id="paint4_linear_896_908" x1="nan" y1="nan" x2="nan" y2="nan" gradientUnits="userSpaceOnUse">
<stop stop-color="#058DDB"/>
<stop offset="1" stop-color="#1892D8"/>
</linearGradient>
<linearGradient id="paint5_linear_896_908" x1="12" y1="40.6" x2="-2.7" y2="26.3" gradientUnits="userSpaceOnUse">
<stop stop-color="#59B9F1"/>
<stop offset="1" stop-color="#0575B5"/>
</linearGradient>
<linearGradient id="paint6_linear_896_908" x1="25.8" y1="-2.49998" x2="40.5" y2="11.8" gradientUnits="userSpaceOnUse">
<stop stop-color="#59B9F1"/>
<stop offset="1" stop-color="#0575B5"/>
</linearGradient>
<linearGradient id="paint7_linear_896_908" x1="25" y1="40.5" x2="39.7" y2="26.2" gradientUnits="userSpaceOnUse">
<stop stop-color="#59B9F1"/>
<stop offset="1" stop-color="#0575B5"/>
</linearGradient>
<linearGradient id="paint8_linear_896_908" x1="11.8" y1="-2.49998" x2="-2.8" y2="11.8" gradientUnits="userSpaceOnUse">
<stop stop-color="#59B9F1"/>
<stop offset="1" stop-color="#0575B5"/>
</linearGradient>
<clipPath id="clip0_896_908">
<rect width="269" height="38" fill="white"/>
</clipPath>
</defs>
</svg>
