<svg width="313" height="53" viewBox="0 0 313 53" fill="none" xmlns="http://www.w3.org/2000/svg">
<path d="M54.168 41.396C52.8773 41.396 51.88 41.044 51.176 40.34C50.472 39.6067 50.12 38.5653 50.12 37.216V25.16L51.792 29.604L41.672 15.04C41.1733 14.336 40.9533 13.5587 41.012 12.708C41.1 11.828 41.452 11.0947 42.068 10.508C42.7133 9.892 43.6227 9.584 44.796 9.584C45.6173 9.584 46.3653 9.78933 47.04 10.2C47.7147 10.5813 48.3453 11.2413 48.932 12.18L55.092 21.244H53.508L59.668 12.136C60.284 11.1973 60.9147 10.5373 61.56 10.156C62.2053 9.77466 62.968 9.584 63.848 9.584C64.9627 9.584 65.828 9.86266 66.444 10.42C67.06 10.9773 67.3827 11.6813 67.412 12.532C67.4707 13.3827 67.2067 14.248 66.62 15.128L56.588 29.604L58.216 25.16V37.216C58.216 40.0027 56.8667 41.396 54.168 41.396ZM77.7362 41.484C75.3309 41.484 73.2335 41.0293 71.4442 40.12C69.6549 39.2107 68.2615 37.9053 67.2642 36.204C66.2669 34.5027 65.7682 32.4933 65.7682 30.176C65.7682 28.416 66.0469 26.8467 66.6042 25.468C67.1615 24.06 67.9682 22.872 69.0242 21.904C70.0802 20.9067 71.3415 20.1587 72.8082 19.66C74.2749 19.132 75.9175 18.868 77.7362 18.868C80.1415 18.868 82.2389 19.3227 84.0282 20.232C85.8175 21.1413 87.1962 22.4467 88.1642 24.148C89.1615 25.82 89.6602 27.8293 89.6602 30.176C89.6602 31.9067 89.3815 33.476 88.8242 34.884C88.2669 36.292 87.4602 37.4947 86.4042 38.492C85.3775 39.46 84.1162 40.208 82.6202 40.736C81.1535 41.2347 79.5255 41.484 77.7362 41.484ZM77.7362 35.72C78.5282 35.72 79.2322 35.5293 79.8482 35.148C80.4642 34.7373 80.9335 34.136 81.2562 33.344C81.6082 32.5227 81.7842 31.4667 81.7842 30.176C81.7842 28.2107 81.4029 26.8027 80.6402 25.952C79.8775 25.072 78.9095 24.632 77.7362 24.632C76.9442 24.632 76.2402 24.8227 75.6242 25.204C75.0082 25.5853 74.5242 26.1867 74.1722 27.008C73.8202 27.8 73.6442 28.856 73.6442 30.176C73.6442 32.112 74.0255 33.52 74.7882 34.4C75.5509 35.28 76.5335 35.72 77.7362 35.72ZM101.477 41.484C98.6609 41.484 96.5783 40.736 95.2289 39.24C93.9089 37.7147 93.2489 35.4267 93.2489 32.376V13.544C93.2489 12.2533 93.5863 11.2707 94.2609 10.596C94.9356 9.92133 95.8889 9.584 97.1209 9.584C98.3823 9.584 99.3503 9.92133 100.025 10.596C100.729 11.2707 101.081 12.2533 101.081 13.544V32.112C101.081 33.1973 101.286 33.9893 101.697 34.488C102.137 34.9867 102.694 35.236 103.369 35.236C103.574 35.236 103.78 35.2213 103.985 35.192C104.22 35.1333 104.469 35.0893 104.733 35.06C105.232 35.06 105.598 35.2507 105.833 35.632C106.097 36.0133 106.229 36.7907 106.229 37.964C106.229 38.9907 106.024 39.768 105.613 40.296C105.202 40.7947 104.572 41.1173 103.721 41.264C103.486 41.2933 103.149 41.3373 102.709 41.396C102.269 41.4547 101.858 41.484 101.477 41.484ZM112.418 41.396C111.186 41.396 110.232 41.0587 109.558 40.384C108.883 39.7093 108.546 38.7267 108.546 37.436V13.544C108.546 12.2533 108.883 11.2707 109.558 10.596C110.232 9.92133 111.186 9.584 112.418 9.584C113.679 9.584 114.647 9.92133 115.322 10.596C116.026 11.2707 116.378 12.2533 116.378 13.544V28.064H116.466L121.834 21.552C122.567 20.672 123.242 20.0267 123.858 19.616C124.503 19.176 125.368 18.956 126.454 18.956C127.539 18.956 128.375 19.22 128.962 19.748C129.548 20.276 129.856 20.936 129.886 21.728C129.915 22.52 129.592 23.312 128.918 24.104L123.11 30.968V28.24L129.622 36.424C130.267 37.2453 130.531 38.052 130.414 38.844C130.296 39.6067 129.915 40.2227 129.27 40.692C128.654 41.1613 127.862 41.396 126.894 41.396C125.72 41.396 124.782 41.1907 124.078 40.78C123.374 40.34 122.67 39.6653 121.966 38.756L116.466 31.98H116.378V37.436C116.378 40.076 115.058 41.396 112.418 41.396ZM141.378 41.484C139.706 41.484 138.225 41.176 136.934 40.56C135.673 39.944 134.676 39.108 133.942 38.052C133.238 36.9667 132.886 35.7347 132.886 34.356C132.886 32.772 133.297 31.5253 134.118 30.616C134.94 29.7067 136.26 29.0613 138.078 28.68C139.897 28.2693 142.317 28.064 145.338 28.064H147.758V31.76H145.338C144.194 31.76 143.241 31.848 142.478 32.024C141.745 32.1707 141.202 32.42 140.85 32.772C140.498 33.0947 140.322 33.52 140.322 34.048C140.322 34.7227 140.557 35.28 141.026 35.72C141.525 36.16 142.229 36.38 143.138 36.38C143.872 36.38 144.517 36.2187 145.074 35.896C145.661 35.5733 146.13 35.1333 146.482 34.576C146.834 33.9893 147.01 33.3147 147.01 32.552V27.448C147.01 26.392 146.732 25.644 146.174 25.204C145.646 24.764 144.722 24.544 143.402 24.544C142.698 24.544 141.906 24.632 141.026 24.808C140.146 24.9547 139.164 25.2333 138.078 25.644C137.286 25.9373 136.612 25.9813 136.054 25.776C135.497 25.5707 135.057 25.2187 134.734 24.72C134.441 24.2213 134.294 23.6787 134.294 23.092C134.324 22.5053 134.514 21.948 134.866 21.42C135.248 20.892 135.82 20.4813 136.582 20.188C137.99 19.66 139.281 19.308 140.454 19.132C141.657 18.956 142.757 18.868 143.754 18.868C146.16 18.868 148.14 19.22 149.694 19.924C151.278 20.5987 152.452 21.6547 153.214 23.092C154.006 24.5 154.402 26.3187 154.402 28.548V37.436C154.402 38.7267 154.094 39.7093 153.478 40.384C152.862 41.0587 151.968 41.396 150.794 41.396C149.592 41.396 148.668 41.0587 148.022 40.384C147.406 39.7093 147.098 38.7267 147.098 37.436V36.292L147.362 36.908C147.216 37.8467 146.878 38.6533 146.35 39.328C145.822 40.0027 145.133 40.5307 144.282 40.912C143.432 41.2933 142.464 41.484 141.378 41.484ZM176.028 41.396C174.737 41.396 173.74 41.044 173.036 40.34C172.332 39.6067 171.98 38.5947 171.98 37.304V14.072C171.98 12.752 172.332 11.74 173.036 11.036C173.769 10.332 174.781 9.98 176.072 9.98H186.896C190.416 9.98 193.129 10.8893 195.036 12.708C196.972 14.4973 197.94 16.976 197.94 20.144C197.94 23.312 196.972 25.8053 195.036 27.624C193.129 29.4133 190.416 30.308 186.896 30.308H180.076V37.304C180.076 38.5947 179.739 39.6067 179.064 40.34C178.389 41.044 177.377 41.396 176.028 41.396ZM180.076 24.104H185.488C187.013 24.104 188.187 23.7813 189.008 23.136C189.829 22.4613 190.24 21.464 190.24 20.144C190.24 18.7947 189.829 17.7973 189.008 17.152C188.187 16.5067 187.013 16.184 185.488 16.184H180.076V24.104ZM207.765 41.484C206.093 41.484 204.612 41.176 203.321 40.56C202.06 39.944 201.062 39.108 200.329 38.052C199.625 36.9667 199.273 35.7347 199.273 34.356C199.273 32.772 199.684 31.5253 200.505 30.616C201.326 29.7067 202.646 29.0613 204.465 28.68C206.284 28.2693 208.704 28.064 211.725 28.064H214.145V31.76H211.725C210.581 31.76 209.628 31.848 208.865 32.024C208.132 32.1707 207.589 32.42 207.237 32.772C206.885 33.0947 206.709 33.52 206.709 34.048C206.709 34.7227 206.944 35.28 207.413 35.72C207.912 36.16 208.616 36.38 209.525 36.38C210.258 36.38 210.904 36.2187 211.461 35.896C212.048 35.5733 212.517 35.1333 212.869 34.576C213.221 33.9893 213.397 33.3147 213.397 32.552V27.448C213.397 26.392 213.118 25.644 212.561 25.204C212.033 24.764 211.109 24.544 209.789 24.544C209.085 24.544 208.293 24.632 207.413 24.808C206.533 24.9547 205.55 25.2333 204.465 25.644C203.673 25.9373 202.998 25.9813 202.441 25.776C201.884 25.5707 201.444 25.2187 201.121 24.72C200.828 24.2213 200.681 23.6787 200.681 23.092C200.71 22.5053 200.901 21.948 201.253 21.42C201.634 20.892 202.206 20.4813 202.969 20.188C204.377 19.66 205.668 19.308 206.841 19.132C208.044 18.956 209.144 18.868 210.141 18.868C212.546 18.868 214.526 19.22 216.081 19.924C217.665 20.5987 218.838 21.6547 219.601 23.092C220.393 24.5 220.789 26.3187 220.789 28.548V37.436C220.789 38.7267 220.481 39.7093 219.865 40.384C219.249 41.0587 218.354 41.396 217.181 41.396C215.978 41.396 215.054 41.0587 214.409 40.384C213.793 39.7093 213.485 38.7267 213.485 37.436V36.292L213.749 36.908C213.602 37.8467 213.265 38.6533 212.737 39.328C212.209 40.0027 211.52 40.5307 210.669 40.912C209.818 41.2933 208.85 41.484 207.765 41.484ZM236.293 41.484C233.858 41.484 231.732 41.0293 229.913 40.12C228.124 39.2107 226.73 37.9053 225.733 36.204C224.736 34.4733 224.237 32.4493 224.237 30.132C224.237 28.372 224.516 26.8027 225.073 25.424C225.63 24.016 226.437 22.828 227.493 21.86C228.578 20.892 229.854 20.1587 231.321 19.66C232.817 19.132 234.474 18.868 236.293 18.868C237.144 18.868 238.038 18.956 238.977 19.132C239.916 19.2787 240.884 19.572 241.881 20.012C242.585 20.276 243.069 20.6867 243.333 21.244C243.626 21.772 243.744 22.344 243.685 22.96C243.656 23.576 243.48 24.1333 243.157 24.632C242.864 25.1307 242.438 25.468 241.881 25.644C241.353 25.82 240.752 25.7467 240.077 25.424C239.608 25.1893 239.109 25.028 238.581 24.94C238.082 24.8227 237.598 24.764 237.129 24.764C236.337 24.764 235.633 24.8813 235.017 25.116C234.43 25.3507 233.932 25.7027 233.521 26.172C233.11 26.612 232.788 27.1693 232.553 27.844C232.348 28.5187 232.245 29.2813 232.245 30.132C232.245 31.8333 232.67 33.168 233.521 34.136C234.372 35.104 235.574 35.588 237.129 35.588C237.598 35.588 238.082 35.544 238.581 35.456C239.08 35.3387 239.578 35.1627 240.077 34.928C240.752 34.6053 241.353 34.5467 241.881 34.752C242.409 34.928 242.834 35.2653 243.157 35.764C243.48 36.2627 243.656 36.82 243.685 37.436C243.714 38.0227 243.582 38.5947 243.289 39.152C242.996 39.68 242.497 40.076 241.793 40.34C240.825 40.78 239.872 41.0733 238.933 41.22C238.024 41.396 237.144 41.484 236.293 41.484ZM250.433 41.396C249.201 41.396 248.248 41.0587 247.573 40.384C246.899 39.7093 246.561 38.7267 246.561 37.436V13.544C246.561 12.2533 246.899 11.2707 247.573 10.596C248.248 9.92133 249.201 9.584 250.433 9.584C251.695 9.584 252.663 9.92133 253.337 10.596C254.041 11.2707 254.393 12.2533 254.393 13.544V28.064H254.481L259.849 21.552C260.583 20.672 261.257 20.0267 261.873 19.616C262.519 19.176 263.384 18.956 264.469 18.956C265.555 18.956 266.391 19.22 266.977 19.748C267.564 20.276 267.872 20.936 267.901 21.728C267.931 22.52 267.608 23.312 266.933 24.104L261.125 30.968V28.24L267.637 36.424C268.283 37.2453 268.547 38.052 268.429 38.844C268.312 39.6067 267.931 40.2227 267.285 40.692C266.669 41.1613 265.877 41.396 264.909 41.396C263.736 41.396 262.797 41.1907 262.093 40.78C261.389 40.34 260.685 39.6653 259.981 38.756L254.481 31.98H254.393V37.436C254.393 40.076 253.073 41.396 250.433 41.396ZM283.576 41.484C280.936 41.484 278.648 41.0293 276.712 40.12C274.805 39.1813 273.339 37.8613 272.312 36.16C271.285 34.4587 270.772 32.4493 270.772 30.132C270.772 27.9027 271.256 25.952 272.224 24.28C273.221 22.5787 274.571 21.2587 276.272 20.32C278.003 19.352 279.968 18.868 282.168 18.868C283.781 18.868 285.248 19.132 286.568 19.66C287.888 20.1587 289.017 20.9067 289.956 21.904C290.895 22.872 291.599 24.0453 292.068 25.424C292.567 26.8027 292.816 28.3427 292.816 30.044C292.816 30.6307 292.655 31.0707 292.332 31.364C292.009 31.628 291.496 31.76 290.792 31.76H277.328V28.064H287.096L286.392 28.636C286.392 27.5507 286.245 26.6707 285.952 25.996C285.659 25.3213 285.219 24.808 284.632 24.456C284.075 24.104 283.371 23.928 282.52 23.928C281.611 23.928 280.819 24.148 280.144 24.588C279.499 24.9987 279 25.6147 278.648 26.436C278.296 27.2573 278.12 28.284 278.12 29.516V29.912C278.12 31.9947 278.575 33.4907 279.484 34.4C280.423 35.28 281.86 35.72 283.796 35.72C284.441 35.72 285.175 35.6467 285.996 35.5C286.847 35.324 287.653 35.0893 288.416 34.796C289.179 34.5027 289.839 34.4587 290.396 34.664C290.953 34.84 291.379 35.1627 291.672 35.632C291.995 36.072 292.171 36.5853 292.2 37.172C292.229 37.7293 292.097 38.2867 291.804 38.844C291.511 39.372 291.027 39.7827 290.352 40.076C289.325 40.5453 288.225 40.8973 287.052 41.132C285.908 41.3667 284.749 41.484 283.576 41.484ZM300.194 41.396C298.904 41.396 297.906 41.0587 297.202 40.384C296.528 39.7093 296.19 38.7267 296.19 37.436V22.872C296.19 21.6107 296.513 20.6427 297.158 19.968C297.833 19.2933 298.786 18.956 300.018 18.956C301.25 18.956 302.189 19.2933 302.834 19.968C303.48 20.6427 303.802 21.6107 303.802 22.872V24.676H303.362C303.656 22.916 304.404 21.5227 305.606 20.496C306.838 19.4693 308.364 18.9267 310.182 18.868C311.033 18.8387 311.664 19.0587 312.074 19.528C312.514 19.968 312.749 20.804 312.778 22.036C312.778 23.092 312.558 23.928 312.118 24.544C311.678 25.16 310.842 25.5267 309.61 25.644L308.598 25.732C307.044 25.8787 305.914 26.3187 305.21 27.052C304.506 27.756 304.154 28.812 304.154 30.22V37.436C304.154 38.7267 303.817 39.7093 303.142 40.384C302.468 41.0587 301.485 41.396 300.194 41.396Z" fill="#012464"/>
<path d="M21.25 20.5C21.25 23.1234 19.1234 25.25 16.5 25.25C13.8766 25.25 11.75 23.1234 11.75 20.5C11.75 17.8766 13.8766 15.75 16.5 15.75C19.1234 15.75 21.25 17.8766 21.25 20.5Z" stroke="#012464" stroke-width="1.5"/>
<path d="M23.2098 29.5208C22.9452 29.8395 22.9889 30.3123 23.3076 30.577C23.6262 30.8416 24.0991 30.7978 24.3637 30.4792L23.2098 29.5208ZM26.5 26.7331L27.077 27.2123L27.5816 26.6047L26.9487 26.1322L26.5 26.7331ZM21.9487 22.399L21.3477 21.9503L20.4503 23.1523L21.0513 23.601L21.9487 22.399ZM24.3637 30.4792L27.077 27.2123L25.923 26.254L23.2098 29.5208L24.3637 30.4792ZM26.9487 26.1322L21.9487 22.399L21.0513 23.601L26.0513 27.3341L26.9487 26.1322Z" fill="#012464"/>
<path d="M8.13626 30.4792C8.4009 30.7978 8.87376 30.8416 9.1924 30.577C9.51105 30.3123 9.55483 29.8395 9.29018 29.5208L8.13626 30.4792ZM6 26.7331L5.5513 26.1322L4.9184 26.6047L5.42304 27.2123L6 26.7331ZM11.4487 23.601L12.0497 23.1523L11.1523 21.9503L10.5513 22.399L11.4487 23.601ZM9.29018 29.5208L6.57696 26.254L5.42304 27.2123L8.13626 30.4792L9.29018 29.5208ZM6.4487 27.3341L11.4487 23.601L10.5513 22.399L5.5513 26.1322L6.4487 27.3341Z" fill="#012464"/>
<path d="M15 10V16" stroke="#012464" stroke-width="1.5"/>
<path d="M18 10V16" stroke="#012464" stroke-width="1.5"/>
<path d="M18.4 20.5C18.4 21.5493 17.5493 22.4 16.5 22.4C15.4507 22.4 14.6 21.5493 14.6 20.5C14.6 19.4507 15.4507 18.6 16.5 18.6C17.5493 18.6 18.4 19.4507 18.4 20.5Z" stroke="#012464" stroke-width="1.2"/>
<path d="M10.4502 37.25V27.75H22.1502V37.25H10.4502Z" stroke="#012464" stroke-width="1.5"/>
<path d="M16.4983 35.0585C16.3076 35.0585 16.1603 35.0065 16.0563 34.9025C15.9523 34.7942 15.9003 34.6403 15.9003 34.441V32.66L16.1473 33.3165L14.6523 31.165C14.5786 31.061 14.5461 30.9462 14.5548 30.8205C14.5678 30.6905 14.6198 30.5822 14.7108 30.4955C14.8061 30.4045 14.9404 30.359 15.1138 30.359C15.2351 30.359 15.3456 30.3893 15.4453 30.45C15.5449 30.5063 15.6381 30.6038 15.7248 30.7425L16.6348 32.0815H16.4008L17.3108 30.736C17.4018 30.5973 17.4949 30.4998 17.5903 30.4435C17.6856 30.3872 17.7983 30.359 17.9283 30.359C18.0929 30.359 18.2208 30.4002 18.3118 30.4825C18.4028 30.5648 18.4504 30.6688 18.4548 30.7945C18.4634 30.9202 18.4244 31.048 18.3378 31.178L16.8558 33.3165L17.0963 32.66V34.441C17.0963 34.8527 16.8969 35.0585 16.4983 35.0585Z" fill="#012464"/>
<path d="M0 40H32V42H0V40Z" fill="#012464"/>
</svg>
